Coordinates
version=1
nRows=11
nColumns=40
inDegrees=yes

Units are S.I. units (second, meters, Newtons, ...)
Angles are in degrees.

endheader
time	pelvis_tilt	pelvis_list	pelvis_rotation	pelvis_tx	pelvis_ty	pelvis_tz	hip_flexion_r	hip_adduction_r	hip_rotation_r	knee_angle_r	knee_angle_r_beta	ankle_angle_r	subtalar_angle_r	mtp_angle_r	hip_flexion_l	hip_adduction_l	hip_rotation_l	knee_angle_l	knee_angle_l_beta	ankle_angle_l	subtalar_angle_l	mtp_angle_l	lumbar_extension	lumbar_bending	lumbar_rotation	arm_flex_r	arm_add_r	arm_rot_r	elbow_flex_r	pro_sup_r	wrist_flex_r	wrist_dev_r	arm_flex_l	arm_add_l	arm_rot_l	elbow_flex_l	pro_sup_l	wrist_flex_l	wrist_dev_l
     39.17500000	     -4.03729337	     -4.11233276	      3.37524468	      0.87737376	      0.92290827	      0.46667766	      1.47678178	     -0.03407379	    -16.01780082	     22.53609513	     22.53609513	     17.78281474	     -1.92808310	     -3.98769641	     25.52843588	     -4.98970736	      0.20391534	     27.77356750	     27.77356750	      9.83123583	    -15.22232430	      8.01748271	     -9.09839477	      7.38649732	      2.65080550	      6.97502088	    -18.66342211	    -13.17533509	     39.00911981	     45.71221119	      0.00000000	      0.00000000	     -8.15361124	    -12.83008275	    -11.97353470	     54.42935967	     46.04600921	      0.00000000	      0.00000000
     39.18828571	     -4.05713157	     -4.01803345	      3.30384657	      0.87769725	      0.92324018	      0.46363132	      1.97990766	     -0.63181636	    -15.76134012	     24.33570783	     24.33570783	     17.47366734	     -2.51107392	     -4.71239436	     25.03927315	     -4.73687073	      0.08400858	     27.83723091	     27.83723091	     10.25814805	    -15.25783159	      7.83880943	     -9.00405903	      7.32849213	      2.67634002	      5.63271296	    -18.84811584	    -13.50676959	     38.18529961	     45.75690744	      0.00000000	      0.00000000	     -8.03334343	    -12.93226060	    -12.06075556	     54.86773399	     46.06974861	      0.00000000	      0.00000000
     39.20157143	     -4.02867282	     -3.92373671	      3.22767983	      0.87796685	      0.92364130	      0.46056885	      2.61343951	     -1.26635912	    -15.44462753	     26.43898778	     26.43898778	     16.99998655	     -3.23878973	     -5.53643277	     24.46918918	     -4.48935753	     -0.06676580	     27.85233636	     27.85233636	     10.71389268	    -15.24797015	      7.67373394	     -9.00402650	      7.26580466	      2.61880305	      4.44933712	    -18.99771016	    -13.80274743	     37.41704694	     45.79802270	      0.00000000	      0.00000000	     -7.93963803	    -13.07208384	    -12.15341419	     55.30319899	     46.09093318	      0.00000000	      0.00000000
     39.21485714	     -4.11473087	     -3.82335442	      3.11890048	      0.87803053	      0.92383924	      0.45759629	      3.64219309	     -1.95242615	    -15.01505229	     28.95789492	     28.95789492	     16.21871772	     -4.29293261	     -6.74686446	     23.99869358	     -4.23449682	     -0.22990857	     27.80361430	     27.80361430	     11.15855453	    -15.23540470	      7.51608530	     -8.88092488	      7.16802317	      2.64835280	      3.22256295	    -19.08589924	    -14.17452144	     36.51503174	     45.84904388	      0.00000000	      0.00000000	     -7.86237723	    -13.19419144	    -12.22831442	     55.92824168	     46.11404737	      0.00000000	      0.00000000
     39.22814286	     -4.09586007	     -3.71218156	      3.03087577	      0.87796071	      0.92411737	      0.45463795	      4.78877141	     -2.67421357	    -14.51338017	     31.84006665	     31.84006665	     15.19960661	     -5.55144265	     -8.03280556	     23.43829339	     -3.98189396	     -0.42161393	     27.76719085	     27.76719085	     11.54648980	    -15.16661344	      7.36215770	     -8.89061373	      7.09096829	      2.57090539	      2.15614658	    -19.19186975	    -14.51962408	     35.69129905	     45.89669369	      0.00000000	      0.00000000	     -7.75626882	    -13.37269458	    -12.29039734	     56.55167414	     46.13512545	      0.00000000	      0.00000000
     39.24142857	     -4.16073477	     -3.68844392	      2.93862206	      0.87772882	      0.92421528	      0.45189727	      5.96443212	     -3.14731775	    -13.74158876	     34.15121976	     34.15121976	     11.07154731	     -9.25031717	    -16.71385831	     22.96433714	     -3.81432630	     -0.52364007	     27.69308634	     27.69308634	     11.97746484	    -15.10863671	      7.11762310	     -8.81730697	      7.06864374	      2.45938682	      1.74699693	    -18.73407388	    -17.44652094	     33.38924956	     46.17518920	      0.00000000	      0.00000000	     -8.20965589	    -13.82263239	    -11.69032012	     58.54683498	     46.19421733	      0.00000000	      0.00000000
     39.25471429	     -4.16266222	     -3.53958667	      2.79620685	      0.87727026	      0.92431683	      0.44916488	      7.63593859	     -3.96422939	    -13.15183763	     37.77640508	     37.77640508	      9.68837405	    -10.67810760	    -17.21549254	     22.42188044	     -3.54564345	     -0.75712140	     27.61243288	     27.61243288	     12.38478109	    -15.01856768	      6.91663171	     -8.85541012	      6.92558164	      2.35892549	      0.75274195	    -18.76579259	    -17.61645445	     32.80395057	     46.20283280	      0.00000000	      0.00000000	     -7.93831066	    -14.00655307	    -11.83260929	     58.95932344	     46.22186859	      0.00000000	      0.00000000
     39.26800000	     -4.12133607	     -3.38072501	      2.67140861	      0.87662182	      0.92433921	      0.44651000	      9.44574013	     -4.76206095	    -12.47488352	     41.58854025	     41.58854025	      7.89974149	    -12.35636070	    -17.63681022	     21.86929871	     -3.26979462	     -0.99193360	     27.56985612	     27.56985612	     12.80089920	    -14.92183281	      6.68869112	     -8.97777680	      6.82292470	      2.23717083	     -0.12493923	    -18.80178938	    -17.77705230	     32.23754966	     46.23029176	      0.00000000	      0.00000000	     -7.64641869	    -14.23947390	    -11.90887862	     59.53611759	     46.24473476	      0.00000000	      0.00000000
     39.28128571	     -4.19893911	     -3.40186550	      2.51003943	      0.87572437	      0.92414207	      0.44430911	     11.50748950	     -5.12833734	    -11.45613207	     45.30032041	     45.30032041	      5.20848734	    -15.18646323	    -18.56739000	     21.52937201	     -3.22332410	     -1.19796117	     27.61580575	     27.61580575	     13.16322491	    -14.84381355	      6.30444985	     -8.97387185	      6.81390178	      2.37096186	     -1.06173695	    -18.74877125	    -18.32721887	     31.25955864	     46.30100497	      0.00000000	      0.00000000	     -7.53868675	    -14.55217628	    -11.60131340	     61.18086912	     46.26769127	      0.00000000	      0.00000000
     39.29457143	     -4.09570014	     -3.16978580	      2.35606772	      0.87481401	      0.92416300	      0.44198680	     13.45222519	     -5.99275330	    -10.87970595	     49.16318355	     49.16318355	      2.97011387	    -16.36420291	    -18.43526423	     20.89081099	     -2.91241123	     -1.53346607	     27.51019071	     27.51019071	     13.57406375	    -14.66523799	      6.06177550	     -9.19219781	      6.58092482	      2.03021662	     -1.65092227	    -18.64159653	    -18.47694661	     30.85648361	     46.32320178	      0.00000000	      0.00000000	     -7.22180276	    -14.90370071	    -11.59662633	     61.67804732	     46.28352264	      0.00000000	      0.00000000
     39.30785714	     -4.12147681	     -3.10803931	      2.17585198	      0.87370639	      0.92396913	      0.44009454	     15.67247881	     -6.44482644	    -10.04286684	     53.02353667	     53.02353667	      1.12875308	    -17.47503948	    -15.96676978	     20.45206267	     -2.82438835	     -1.86262258	     27.45089204	     27.45089204	     13.81794382	    -14.47356991	      5.37851715	     -9.26457132	      6.49060485	      1.89457011	     -2.04973258	    -18.31767563	    -19.73986816	     29.68615257	     46.45659103	      0.00000000	      0.00000000	     -7.44422487	    -15.60357354	    -10.62399778	     63.86217996	     46.30342938	      0.00000000	      0.00000000
